<svg width="26" height="30" viewBox="0 0 26 30" fill="none" xmlns="http://www.w3.org/2000/svg">
<path d="M13.6301 0.270087C13.2776 0.277587 12.9951 0.567587 13.0001 0.920087C13.0001 2.87509 12.2526 3.45759 11.2976 4.31509C10.3426 5.17009 9.17009 6.30259 9.17009 8.60009C9.16759 8.83009 9.28759 9.04509 9.48759 9.16259C9.68759 9.27759 9.93259 9.27759 10.1326 9.16259C10.3326 9.04509 10.4526 8.83009 10.4501 8.60009C10.4501 6.69009 11.1926 6.12759 12.1526 5.26759C13.1126 4.40759 14.2801 3.25509 14.2801 0.920087C14.2826 0.747587 14.2151 0.580087 14.0926 0.457587C13.9701 0.335087 13.8026 0.267587 13.6301 0.270087ZM16.8351 3.47009C16.4826 3.47759 16.2001 3.76759 16.2051 4.12009C16.2051 5.37009 15.7751 5.66759 15.1376 6.23509C14.5001 6.80259 13.6401 7.64759 13.6401 9.24009C13.6376 9.47009 13.7576 9.68509 13.9576 9.80259C14.1576 9.91759 14.4026 9.91759 14.6026 9.80259C14.8026 9.68509 14.9226 9.47009 14.9201 9.24009C14.9201 8.04009 15.3426 7.76509 15.9876 7.19009C16.6326 6.61759 17.4851 5.75009 17.4851 4.12009C17.4876 3.94759 17.4201 3.78009 17.2976 3.65759C17.1751 3.53509 17.0076 3.46759 16.8351 3.47009ZM4.04009 11.1601C3.68759 11.1601 3.40009 11.4476 3.40009 11.8001V20.1201C3.40009 22.2151 4.41759 24.0726 5.97759 25.2401H1.48009C1.12759 25.2401 0.840088 25.5276 0.840088 25.8801C0.840088 27.0151 1.49259 27.9801 2.34259 28.6476C3.19259 29.3126 4.26259 29.7201 5.32009 29.7201H19.4001C20.4576 29.7201 21.5276 29.3126 22.3776 28.6476C23.2276 27.9801 23.8801 27.0151 23.8801 25.8801C23.8801 25.5276 23.5926 25.2401 23.2401 25.2401H18.7426C20.1501 24.1851 21.1151 22.5726 21.2901 20.7301C22.7001 20.5901 23.7326 19.9551 24.3276 18.9976C24.9851 17.9326 25.1426 16.5801 25.1501 15.1101C25.1526 15.1051 25.1526 15.1001 25.1526 15.0951C25.1576 15.0626 25.1601 15.0326 25.1601 15.0001C25.1601 13.9476 24.2926 13.0801 23.2401 13.0801H21.3201V11.8001C21.3201 11.4476 21.0326 11.1601 20.6801 11.1601H4.04009ZM4.68009 12.4401H20.0401V20.0126C20.0301 20.0751 20.0276 20.1376 20.0376 20.2001C19.9926 22.9976 17.7276 25.2401 14.9201 25.2401H9.80009C6.96509 25.2401 4.68009 22.9551 4.68009 20.1201V12.4401ZM21.3201 14.3601H23.2401C23.6026 14.3601 23.8801 14.6376 23.8801 15.0001C23.8801 16.4176 23.6951 17.5876 23.2401 18.3226C22.8576 18.9376 22.3176 19.3276 21.3201 19.4401V14.3601ZM2.30509 26.5201H22.4151C22.2526 26.9251 22.0001 27.3151 21.5876 27.6401C20.9601 28.1301 20.1101 28.4401 19.4001 28.4401H5.32009C4.61009 28.4401 3.76009 28.1301 3.13259 27.6401C2.72009 27.3151 2.46759 26.9251 2.30509 26.5201Z" fill="white"/>
</svg>
