<svg width="22" height="27" viewBox="0 0 22 27" fill="none" xmlns="http://www.w3.org/2000/svg">
<path d="M6.5 7C7.32843 7 8 6.32843 8 5.5C8 4.67157 7.32843 4 6.5 4C5.67157 4 5 4.67157 5 5.5C5 6.32843 5.67157 7 6.5 7Z" fill="white"/>
<path d="M15.5 7C16.3284 7 17 6.32843 17 5.5C17 4.67157 16.3284 4 15.5 4C14.6716 4 14 4.67157 14 5.5C14 6.32843 14.6716 7 15.5 7Z" fill="white"/>
<path fill-rule="evenodd" clip-rule="evenodd" d="M3.2 0C1.44031 0 0 1.44031 0 3.2V23.04C0 24.7997 1.44031 26.24 3.2 26.24H18.5537C20.3134 26.24 21.7537 24.7997 21.7537 23.04V23.0387L21.7162 3.19375C21.7123 1.43668 20.2735 0 18.5162 0H3.2ZM3.2 1.28H18.5162C19.5827 1.28 20.4338 2.12964 20.4362 3.19625L20.4531 12.1262H1.28V3.2C1.28 2.13217 2.13217 1.28 3.2 1.28ZM1.28 13.8862H20.4564L20.4645 18.126H1.28003V19.886H20.4678L20.4737 23.0413C20.4731 24.1085 19.6212 24.96 18.5537 24.96H3.2C2.13217 24.96 1.28 24.1078 1.28 23.04V13.8862Z" fill="white"/>
</svg>
