<svg width="30" height="28" viewBox="0 0 30 28" fill="none" xmlns="http://www.w3.org/2000/svg">
<path d="M18.07 0.559928C17.8 0.567428 17.5625 0.749928 17.4825 1.00993C17.4025 1.26993 17.495 1.55243 17.7125 1.71493C19.165 2.81743 20.4575 4.11493 21.5575 5.56743C21.6925 5.75743 21.92 5.85993 22.1525 5.83243C22.385 5.80743 22.5825 5.65493 22.6725 5.43993C22.76 5.22243 22.725 4.97743 22.5775 4.79493C21.4075 3.24743 20.03 1.86743 18.4875 0.694929C18.37 0.602428 18.2225 0.554929 18.07 0.559928ZM13.4925 1.23993C13.1975 1.23493 12.935 1.42993 12.8575 1.71493C12.7825 2.00243 12.91 2.30243 13.17 2.44493C16.0775 4.07243 18.5325 6.41493 20.3 9.22993C20.4875 9.52993 20.8825 9.62243 21.1825 9.43493C21.48 9.24493 21.5725 8.84993 21.3825 8.54993C19.5025 5.55243 16.8925 3.06243 13.7975 1.32743C13.705 1.27243 13.6 1.24493 13.4925 1.23993ZM8.28005 2.48493C7.70505 2.48493 7.13005 2.70243 6.69755 3.13493C6.46005 3.37243 6.29755 3.64993 6.19005 3.94493L6.02255 3.77493C5.59005 3.34243 5.01505 3.12493 4.44005 3.12493C3.86505 3.12243 3.29005 3.34243 2.85505 3.77493C2.13755 4.49493 2.02255 5.58993 2.49005 6.43993C2.15755 6.53993 1.84005 6.71243 1.57505 6.97743C0.707549 7.84493 0.707549 9.27493 1.57505 10.1424L1.74755 10.3149C1.45255 10.4149 1.17505 10.5774 0.935049 10.8174C0.0675488 11.6849 0.0675488 13.1149 0.935049 13.9824L1.49505 14.5424L12.035 25.0849C14.28 27.3299 17.9375 27.3299 20.18 25.0849L22.8825 22.3824C23.535 21.7324 24.0375 20.9499 24.3575 20.0874L26.04 15.5574C26.2975 14.8674 26.7 14.2399 27.22 13.7199L28.33 12.6124L28.97 11.9724C29.965 10.9774 29.965 9.34493 28.97 8.34993C27.975 7.35743 26.3425 7.35743 25.35 8.34993L24.71 8.98993L24.2575 9.44493L21.57 12.1299C20.815 12.8849 19.6125 12.8849 18.8575 12.1299L10.4625 3.73743L9.86255 3.13493C9.43005 2.70243 8.85505 2.48493 8.28005 2.48493ZM8.28005 3.75493C8.52505 3.75743 8.76755 3.85243 8.96005 4.04243L9.56005 4.63993C9.55755 4.64243 9.55755 4.64243 9.56005 4.64243L17.95 13.0324C19.195 14.2774 21.2325 14.2774 22.4775 13.0324L25.16 10.3499L25.615 9.89743L26.255 9.25743C26.76 8.74993 27.56 8.74993 28.065 9.25743C28.57 9.76243 28.57 10.5599 28.065 11.0674L26.315 12.8174C25.665 13.4649 25.1625 14.2499 24.84 15.1099L23.1575 19.6399C22.9 20.3299 22.5 20.9574 21.98 21.4774C21.9775 21.4774 21.9775 21.4774 21.98 21.4774L19.2775 24.1799C17.5225 25.9349 14.695 25.9349 12.94 24.1799L1.84005 13.0799C1.46255 12.6999 1.46005 12.1024 1.84005 11.7199C2.21755 11.3449 2.77005 11.3699 3.17005 11.7699C3.19005 11.7924 3.21505 11.8124 3.24005 11.8299L8.48005 17.1899C8.64005 17.3574 8.87755 17.4249 9.10255 17.3699C9.32505 17.3149 9.50255 17.1399 9.56255 16.9174C9.62505 16.6949 9.56005 16.4574 9.39755 16.2924L3.30505 10.0674C3.30255 10.0649 3.30255 10.0624 3.30005 10.0624L2.48255 9.23993C2.48255 9.23993 2.48255 9.23993 2.48005 9.23993C2.10255 8.85993 2.10005 8.26243 2.48005 7.87993C2.86005 7.49993 3.42505 7.51243 3.81505 7.90243L9.68755 13.7724C9.84755 13.9399 10.085 14.0074 10.31 13.9499C10.5325 13.8924 10.71 13.7149 10.7675 13.4924C10.825 13.2674 10.7575 13.0299 10.59 12.8699L4.76005 7.03743C4.74755 7.02493 4.73505 7.00993 4.72005 6.99993L3.76005 6.03993C3.38005 5.65743 3.38005 5.05993 3.76005 4.67993C4.14255 4.29993 4.74005 4.30243 5.12005 4.67993L12.31 11.8699C12.47 12.0374 12.7075 12.1049 12.9325 12.0474C13.155 11.9899 13.3325 11.8124 13.39 11.5899C13.4475 11.3649 13.38 11.1274 13.2125 10.9674L7.64505 5.39993C7.63255 5.38493 7.62255 5.37243 7.61005 5.35993C7.21755 4.96993 7.21505 4.42743 7.60005 4.03993C7.79005 3.85243 8.03505 3.75493 8.28005 3.75493ZM1.71005 18.4724C1.48505 18.4824 1.28005 18.6099 1.17255 18.8074C1.06505 19.0074 1.07005 19.2474 1.18505 19.4399C3.10255 22.7549 5.89255 25.4974 9.24005 27.3574C9.44255 27.4749 9.69005 27.4749 9.89005 27.3574C10.0925 27.2399 10.2125 27.0224 10.2075 26.7899C10.2 26.5549 10.07 26.3449 9.86255 26.2374C6.71755 24.4899 4.09505 21.9124 2.29505 18.7999C2.17755 18.5899 1.95005 18.4649 1.71005 18.4724Z" fill="white"/>
</svg>
