<svg width="30" height="30" viewBox="0 0 30 30" fill="none" xmlns="http://www.w3.org/2000/svg">
<path d="M2.83992 0.919922C2.67019 0.919939 2.50741 0.987373 2.38739 1.10739C2.26737 1.22741 2.19994 1.39019 2.19992 1.55992V4.04117C2.17967 4.11871 1.88982 5.22595 1.57992 6.43867C1.41964 7.06589 1.25967 7.6992 1.13867 8.19367C1.07817 8.44091 1.02775 8.65275 0.991172 8.81492C0.972883 8.89601 0.957623 8.96495 0.946172 9.02367C0.93472 9.08239 0.919922 9.07234 0.919922 9.23992C0.919922 10.1786 1.4399 10.9955 2.19992 11.4412V23.3199C2.19992 24.3727 3.06714 25.2399 4.11992 25.2399C4.11992 26.1821 4.43054 27.133 5.08117 27.8649C5.7318 28.5969 6.73326 29.0799 7.95992 29.0799C10.0731 29.0799 11.7999 27.3531 11.7999 25.2399H23.3199V26.6924C23.0764 26.8335 22.8862 27.051 22.7787 27.3111C22.6712 27.5712 22.6524 27.8595 22.7253 28.1313C22.7982 28.4032 22.9586 28.6434 23.1818 28.8149C23.405 28.9864 23.6785 29.0795 23.9599 29.0799C24.2414 29.0795 24.5148 28.9864 24.738 28.8149C24.9612 28.6434 25.1217 28.4032 25.1945 28.1313C25.2674 27.8595 25.2486 27.5712 25.1412 27.3111C25.0337 27.051 24.8434 26.8335 24.5999 26.6924V25.2399H25.8799C26.9327 25.2399 27.7999 24.3727 27.7999 23.3199V11.4412C28.5599 10.9955 29.0799 10.1786 29.0799 9.23992C29.0799 9.07234 29.0651 9.08239 29.0537 9.02367C29.0422 8.96495 29.027 8.89601 29.0087 8.81492C28.9721 8.65275 28.9217 8.44091 28.8612 8.19367C28.7402 7.6992 28.5802 7.06589 28.4199 6.43867C28.11 5.22595 27.8202 4.11871 27.7999 4.04117V1.55992C27.7999 1.39019 27.7325 1.22741 27.6124 1.10739C27.4924 0.987373 27.3297 0.919939 27.1599 0.919922H2.83992ZM3.47992 2.19992H26.5199V3.47992H3.47992V2.19992ZM3.33492 4.75992H26.6649C26.7551 5.10566 26.9223 5.74682 27.1799 6.75492C27.3396 7.37994 27.4997 8.01232 27.6187 8.49867C27.6782 8.74185 27.7277 8.94923 27.7612 9.09742C27.7764 9.16498 27.7862 9.216 27.7937 9.25367C27.7851 9.96054 27.2291 10.5199 26.5199 10.5199C25.8053 10.5199 25.2399 9.95459 25.2399 9.23992H23.9599C23.9599 9.95459 23.3946 10.5199 22.6799 10.5199C21.9653 10.5199 21.3999 9.95459 21.3999 9.23992H20.1199C20.1199 9.95459 19.5546 10.5199 18.8399 10.5199C18.1253 10.5199 17.5599 9.95459 17.5599 9.23992C17.5575 9.07175 17.4891 8.91127 17.3693 8.79319C17.2495 8.67511 17.0881 8.60891 16.9199 8.60891C16.7517 8.60891 16.5903 8.67511 16.4705 8.79319C16.3508 8.91127 16.2823 9.07175 16.2799 9.23992C16.2799 9.95459 15.7146 10.5199 14.9999 10.5199C14.2853 10.5199 13.7199 9.95459 13.7199 9.23992C13.7175 9.07175 13.6491 8.91127 13.5293 8.79319C13.4095 8.67511 13.2481 8.60891 13.0799 8.60891C12.9117 8.60891 12.7503 8.67511 12.6305 8.79319C12.5108 8.91127 12.4423 9.07175 12.4399 9.23992C12.4399 9.95459 11.8746 10.5199 11.1599 10.5199C10.4453 10.5199 9.87992 9.95459 9.87992 9.23992C9.87754 9.07175 9.80907 8.91127 9.6893 8.79319C9.56954 8.67511 9.40811 8.60891 9.23992 8.60891C9.07173 8.60891 8.9103 8.67511 8.79054 8.79319C8.67077 8.91127 8.6023 9.07175 8.59992 9.23992C8.59992 9.95459 8.03459 10.5199 7.31992 10.5199C6.60526 10.5199 6.03992 9.95459 6.03992 9.23992H4.75992C4.75992 9.95459 4.19459 10.5199 3.47992 10.5199C2.77075 10.5199 2.21478 9.96054 2.20617 9.25367C2.2137 9.216 2.22344 9.16498 2.23867 9.09742C2.2721 8.94923 2.32167 8.74185 2.38117 8.49867C2.50018 8.01232 2.6602 7.37994 2.81992 6.75492C3.07753 5.74682 3.24479 5.10566 3.33492 4.75992ZM5.39992 10.8812C5.87068 11.4311 6.54492 11.7999 7.31992 11.7999C8.09492 11.7999 8.76917 11.4311 9.23992 10.8812C9.71068 11.4311 10.3849 11.7999 11.1599 11.7999C11.9349 11.7999 12.6092 11.4311 13.0799 10.8812C13.5507 11.4311 14.2249 11.7999 14.9999 11.7999C15.7749 11.7999 16.4492 11.4311 16.9199 10.8812C17.3907 11.4311 18.0649 11.7999 18.8399 11.7999C19.6149 11.7999 20.2892 11.4311 20.7599 10.8812C21.2307 11.4311 21.9049 11.7999 22.6799 11.7999C23.4549 11.7999 24.1292 11.4311 24.5999 10.8812C25.0707 11.4311 25.7449 11.7999 26.5199 11.7999V16.9199H3.47992V11.7999C4.25492 11.7999 4.92917 11.4311 5.39992 10.8812ZM3.47992 18.1999H26.5199V23.3199C26.5199 23.6815 26.2415 23.9599 25.8799 23.9599H24.0587C24.0227 23.9539 23.9864 23.951 23.9499 23.9512C23.9189 23.9518 23.888 23.9548 23.8574 23.9599H11.5749C11.0446 22.4728 9.62401 21.3999 7.95992 21.3999C6.73326 21.3999 5.7318 21.883 5.08117 22.6149C4.72949 23.0106 4.48507 23.4723 4.32742 23.9599H4.11992C3.7583 23.9599 3.47992 23.6815 3.47992 23.3199V18.1999ZM7.95992 22.6799C9.38135 22.6799 10.5199 23.8185 10.5199 25.2399C10.5199 26.6614 9.38135 27.7999 7.95992 27.7999C7.05326 27.7999 6.45471 27.483 6.03867 27.0149C5.62263 26.5469 5.39992 25.8977 5.39992 25.2399C5.39992 24.5821 5.62263 23.933 6.03867 23.4649C6.45471 22.9969 7.05326 22.6799 7.95992 22.6799Z" fill="white"/>
</svg>
