<svg width="30" height="26" viewBox="0 0 30 26" fill="none" xmlns="http://www.w3.org/2000/svg">
<path d="M15 0.199951C13.9475 0.199951 13.08 1.06745 13.08 2.11995C13.08 2.21745 13.085 2.30745 13.1 2.39995L2.66005 9.15995H0.920048C0.900048 9.15995 0.880048 9.15995 0.860048 9.15995C0.530048 9.18995 0.277548 9.46745 0.280048 9.79995V25.16C0.280048 25.5125 0.567548 25.7999 0.920048 25.7999H29.0801C29.4326 25.7999 29.7201 25.5125 29.7201 25.16V9.79995C29.7201 9.44745 29.4326 9.15995 29.0801 9.15995H27.3401L16.9 2.39995C16.915 2.30745 16.92 2.21745 16.92 2.11995C16.92 1.06745 16.0525 0.199951 15 0.199951ZM15 1.47995C15.36 1.47995 15.64 1.75995 15.64 2.11995C15.64 2.47995 15.36 2.75995 15 2.75995C14.64 2.75995 14.36 2.47995 14.36 2.11995C14.36 1.75995 14.64 1.47995 15 1.47995ZM13.7 3.53995C14.0425 3.85495 14.505 4.03995 15 4.03995C15.495 4.03995 15.9575 3.85495 16.3 3.53995L25.0001 9.15995H5.00005L13.7 3.53995ZM1.56005 10.44H2.64005C2.74505 10.4675 2.85505 10.4675 2.96005 10.44H27.0601C27.1576 10.465 27.2626 10.465 27.3601 10.44H28.4401V24.52H1.56005V10.44ZM6.36005 13.64C5.13005 13.64 4.12005 14.65 4.12005 15.88V19.08C4.12005 20.3099 5.13005 21.32 6.36005 21.32C7.59005 21.32 8.60005 20.3099 8.60005 19.08V15.88C8.60005 14.65 7.59005 13.64 6.36005 13.64ZM9.88005 13.64V21.32H11.16V18.76H11.8C13.2075 18.76 14.36 17.6075 14.36 16.2C14.36 14.7925 13.2075 13.64 11.8 13.64H9.88005ZM15.64 13.64V21.32H19.48V20.04H16.92V18.12H18.84V16.84H16.92V14.92H19.48V13.64H15.64ZM20.76 13.64V21.32H22.0401V16.52L23.34 20.86L23.4801 21.32H25.2401V13.64H23.9601V18.44L22.6601 14.1L22.5201 13.64H20.76ZM6.36005 14.92C6.89755 14.92 7.32005 15.3425 7.32005 15.88V19.08C7.32005 19.6175 6.89755 20.04 6.36005 20.04C5.82255 20.04 5.40005 19.6175 5.40005 19.08V15.88C5.40005 15.3425 5.82255 14.92 6.36005 14.92ZM11.16 14.92H11.8C12.515 14.92 13.08 15.485 13.08 16.2C13.08 16.915 12.515 17.4799 11.8 17.4799H11.16V14.92Z" fill="white"/>
</svg>
