<?xml version="1.0" encoding="utf-8"?>
<!-- Generator: Adobe Illustrator 16.0.0, SVG Export Plug-In . SVG Version: 6.00 Build 0)  -->
<!DOCTYPE svg PUBLIC "-//W3C//DTD SVG 1.1//EN" "http://www.w3.org/Graphics/SVG/1.1/DTD/svg11.dtd">
<svg version="1.1" id="Layer_1" xmlns="http://www.w3.org/2000/svg" xmlns:xlink="http://www.w3.org/1999/xlink" x="0px"
	y="0px" width="358.321px" height="609.178px" viewBox="0 0 358.321 609.178"
	enable-background="new 0 0 358.321 609.178" xml:space="preserve">
	<path d="M219.357-344.033h-22.232c-0.164,0-1.603,0.094-1.603,3.34s1.438,3.34,1.603,3.34h22.232c0.164,0,1.603-0.094,1.603-3.34
	S219.521-344.033,219.357-344.033" />
	<path d="M245.092-360.62c-12.091,0-20.535,8.408-20.535,20.447v4.517c0,12.23,8.566,20.448,21.316,20.448
	c10.378,0,19.045-6.322,19.317-14.073c0.006-0.068,0.008-0.312-0.23-0.573c-0.488-0.534-1.681-0.805-3.542-0.805
	c-3.421,0-3.688,1.027-3.688,1.343c0,3.713-4.765,7.689-11.857,7.689c-8.011,0-12.986-4.844-12.986-12.64v-1.176h28.879
	c3.344,0,3.513-1.264,3.513-1.517v-3.214C265.278-352.02,256.789-360.62,245.092-360.62 M257.802-341.167h-24.915
	c0.017-7.643,5.057-12.773,12.552-12.773C252.37-353.94,257.407-348.708,257.802-341.167" />
	<path d="M293.2-360.446c-18.23,0-20.342,1.751-20.522,1.95l-0.1,0.11v41.4c0,0.268,0.198,1.604,4.122,1.604
	c4.006,0,4.209-1.336,4.209-1.604v-36.781H293.2c9.988,0,10.119,9.208,10.12,9.6v27.182c0,0.268,0.199,1.604,4.122,1.604
	c4.006,0,4.207-1.336,4.207-1.604v-27.182C311.649-344.33,311.438-360.446,293.2-360.446" />
	<path d="M354.942-380.42c-3.922,0-4.119,1.335-4.119,1.604v18.782c-2.959-0.16-7.017-0.237-12.381-0.237
	c-18.153,0-18.362,16.289-18.362,16.453v11.984c0,0.164,0.209,16.453,18.362,16.453c18.231,0,20.342-1.751,20.522-1.951l0.1-0.11
	v-61.374C359.064-379.085,358.866-380.42,354.942-380.42 M338.442-322.061c-9.988,0-10.119-9.375-10.12-9.773v-11.984
	c0.001-0.399,0.132-9.773,10.12-9.773h12.381v31.531H338.442z" />
	<path d="M39.764-377.187H5.547c-4.087,0-4.295,1.336-4.295,1.603v58.62c0,0.182,0.123,1.777,4.382,1.777
	c0.042,0,4.209-0.441,4.209-1.777v-25.318h26.274c0.164,0,1.603-0.099,1.603-3.514c0-3.584-1.439-3.688-1.603-3.688H9.843v-20.24
	h29.921c0.164,0,1.604-0.102,1.604-3.602C41.368-377.001,40.032-377.187,39.764-377.187" />
	<path
		d="M72.24-359.375c-0.126-0.028-3.169-0.705-10.768-0.705c-15.665,0-15.846,11.303-15.846,11.417v31.871
	c0,0.269,0.199,1.604,4.122,1.604c4.005,0,4.208-1.336,4.208-1.604v-31.871c0-0.048,0.102-4.736,8.905-4.736
	c6.38,0,9.183,0.593,9.21,0.599l0.083,0.008c0.155,0,1.516-0.088,1.516-3.166C73.67-358.75,72.434-359.304,72.24-359.375" />
	<path d="M95.253-360.426c-12.099,0-20.881,8.6-20.881,20.448v4.516c0,12.04,8.587,20.449,20.881,20.449
	c12.347,0,20.97-8.409,20.97-20.449v-4.516C116.223-351.827,107.404-360.426,95.253-360.426 M82.701-340.846
	c0-7.612,5.044-12.727,12.552-12.727c7.679,0,12.64,4.995,12.64,12.727v6.253c0,7.73-4.961,12.726-12.64,12.726
	c-7.625,0-12.552-4.995-12.552-12.726V-340.846z" />
	<path d="M143.622-360.252c-18.23,0-20.341,1.751-20.522,1.951l-0.1,0.109v41.4c0,0.268,0.199,1.604,4.122,1.604
	c4.005,0,4.207-1.336,4.207-1.604v-36.781h12.293c9.988,0,10.12,9.208,10.121,9.601v27.181c0,0.268,0.199,1.604,4.122,1.604
	c4.005,0,4.207-1.336,4.207-1.604v-27.181C162.072-344.135,161.861-360.252,143.622-360.252" />
	<path d="M190.863-322.302h-4.343c-4.578,0-4.649-3.877-4.649-4.041v-26.796h8.73c0.164,0,1.604-0.094,1.604-3.339
	c0-3.247-1.44-3.34-1.604-3.34h-8.73v-10.556c0-0.469-0.536-1.256-4.122-1.256s-4.121,0.787-4.121,1.256v10.556h-7.603
	c-0.164,0-1.603,0.093-1.603,3.34c0,3.245,1.439,3.339,1.603,3.339h7.603v27.75c0,0.098,0.147,9.767,12.893,9.767h4.343
	c0.224,0,1.343-0.16,1.343-3.34C192.206-322.141,191.087-322.302,190.863-322.302" />
	<path d="M14.657-441.356c-8.378,0-13.404,5.524-13.404,14.176v3.984c0,8.649,5.026,14.174,13.449,14.174
	c7.246,0,12.273-4.029,12.273-9.781v-0.861c0,0-0.091-0.725-1.812-0.725c-1.902,0-2.038,0.725-2.038,0.725v0.725
	c0,3.851-3.623,6.295-8.468,6.295c-5.933,0-9.284-3.667-9.284-10.008v-5.071c0-6.295,3.396-10.055,9.238-10.055
	c4.846,0,8.514,2.628,8.514,6.251v0.679c0,0,0.136,0.681,1.992,0.681c1.767,0,1.858-0.681,1.858-0.681v-0.815
	C26.975-437.325,21.812-441.356,14.657-441.356" />
	<path d="M61.922-441.173c-1.857,0-2.174,0.725-2.174,0.725l-12.77,30.884c0,0,0,0.543,2.219,0.543c2.082,0,2.309-0.543,2.309-0.543
	l3.034-7.744h14.718l3.034,7.744c0,0,0.226,0.543,2.265,0.543c1.992,0,2.082-0.543,2.082-0.543L64.05-440.449
	C64.05-440.449,63.733-441.173,61.922-441.173 M55.808-420.615l6.114-15.486l6.022,15.486H55.808z" />
	<path d="M129.7-441.173c-2.084,0-2.31,0.543-2.31,0.543l-11.367,26.174l-11.457-26.174c0,0-0.181-0.543-2.354-0.543
	c-2.355,0-2.355,0.543-2.355,0.543v30.884c0,0,0,0.634,1.901,0.634c1.767,0,1.767-0.634,1.767-0.634v-25.178l10.732,25.088
	c0,0,0.228,0.634,1.766,0.634c1.54,0,1.722-0.634,1.722-0.634l10.732-25.36v25.45c0,0,0,0.634,1.811,0.634
	c1.857,0,1.857-0.634,1.857-0.634v-30.884C132.145-440.63,132.145-441.173,129.7-441.173" />
	<path d="M171.255-441.265c-9.782,0-12.046,0.952-12.046,0.952v30.565c0,0,0,0.636,2.038,0.636s2.038-0.636,2.038-0.636v-11.501
	c1.766,0.091,4.347,0.182,7.97,0.182c9.465,0,9.465-8.377,9.465-8.377v-3.443C180.72-432.887,180.72-441.265,171.255-441.265
	 M176.644-429.537c0,0,0,5.345-5.434,5.345h-7.925v-13.993h7.925c5.434,0,5.434,5.388,5.434,5.388V-429.537z" />
	<path d="M207.651-441.265c-2.038,0-2.038,0.634-2.038,0.634v30.885c0,0,0,0.635,2.083,0.635c1.993,0,1.993-0.635,1.993-0.635
	v-30.885C209.689-440.631,209.689-441.265,207.651-441.265" />
	<path
		d="M259.767-441.265c-2.038,0-2.038,0.634-2.038,0.634v24.772l-16.893-24.908c0,0-0.316-0.498-2.036-0.498
	c-2.038,0-2.038,0.634-2.038,0.634v30.885c0,0,0,0.635,2.083,0.635c1.991,0,1.991-0.635,1.991-0.635v-24.905l16.893,25.042
	c0,0,0.317,0.498,2.083,0.498c1.993,0,1.993-0.635,1.993-0.635v-30.885C261.805-440.631,261.805-441.265,259.767-441.265" />
	<path d="M299.965-441.173c-1.856,0-2.174,0.725-2.174,0.725l-12.771,30.884c0,0,0,0.543,2.221,0.543c2.082,0,2.31-0.543,2.31-0.543
	l3.033-7.744h14.718l3.034,7.744c0,0,0.227,0.543,2.264,0.543c1.993,0,2.083-0.543,2.083-0.543l-12.589-30.884
	C302.093-440.449,301.776-441.173,299.965-441.173 M293.851-420.615l6.114-15.486l6.022,15.486H293.851z" />
	<path d="M349.766-426.456c-5.027-1.675-9.147-2.898-9.147-6.521c0-3.17,2.943-5.118,7.245-5.118c4.936,0,7.019,2.582,7.019,6.249
	v0.681c0,0,0.183,0.679,1.947,0.679c1.813,0,1.903-0.679,1.903-0.679v-0.86c0-4.982-2.989-9.33-11.05-9.33
	c-7.02,0-11.141,3.261-11.141,8.469c0,5.706,4.891,7.473,9.917,9.104c4.62,1.493,8.785,3.169,8.785,6.747
	c0,2.989-2.581,4.754-7.381,4.754c-5.706,0-8.062-2.49-8.062-6.293v-0.771c0,0-0.181-0.679-1.946-0.679
	c-1.767,0-1.902,0.679-1.902,0.679v0.904c0,4.846,2.854,9.42,11.865,9.42c7.88,0,11.502-3.531,11.502-8.241
	C359.32-422.743,354.384-424.871,349.766-426.456" />
	<g>
		<path d="M271.638,85.087L279.769,71l29.297,16.91l-8.131,14.086L271.638,85.087z M213.044,51.268l8.13-14.086l29.297,16.909
		l-8.131,14.086L213.044,51.268z" />
		<path d="M59.756,270.439l8.079,14.111c0.909,1.587,2.932,2.138,4.519,1.229l12.001-6.87c1.589-0.909,2.139-2.932,1.229-4.521
		l-8.079-14.111c-0.909-1.587-2.932-2.138-4.519-1.229l-12.001,6.87C59.396,266.828,58.847,268.853,59.756,270.439" />
		<path d="M298.563,152.472l-8.079-14.112c-0.909-1.587-2.933-2.137-4.52-1.229l-12,6.869c-1.587,0.909-2.137,2.932-1.228,4.52
		l8.079,14.112c0.907,1.587,2.932,2.137,4.519,1.228l11.999-6.868C298.922,156.083,299.472,154.059,298.563,152.472" />
		<path d="M296.962,266.718l-11.953-6.95c-1.581-0.92-3.607-0.383-4.526,1.198l-8.175,14.057c-0.92,1.581-0.384,3.608,1.197,4.527
		l11.953,6.951c1.581,0.919,3.608,0.383,4.528-1.198l8.174-14.058C299.08,269.665,298.543,267.637,296.962,266.718" />
		<path d="M61.355,156.193l11.954,6.951c1.582,0.919,3.608,0.383,4.527-1.198l8.174-14.059c0.921-1.58,0.384-3.607-1.197-4.526
		l-11.954-6.951c-1.582-0.919-3.609-0.383-4.528,1.198l-8.174,14.057C59.237,153.246,59.774,155.274,61.355,156.193" />
		<path d="M179.159,122.12c-49.26,0-89.335,40.074-89.335,89.335c0,49.26,40.075,89.336,89.335,89.336s89.336-40.076,89.336-89.336
		C268.495,162.194,228.419,122.12,179.159,122.12 M173.203,187.57c0,0.578-0.25,1.103-0.667,1.404l-30.304,21.899
		c-0.155,0.112-0.253,0.339-0.254,0.592c0,0.255,0.098,0.483,0.255,0.597l30.301,21.874c0.418,0.301,0.669,0.826,0.669,1.404v15.893
		c0,0.667-0.324,1.247-0.847,1.515c-0.183,0.093-0.378,0.139-0.571,0.139c-0.263,0-0.523-0.084-0.752-0.249l-55.076-39.758
		c-0.418-0.3-0.668-0.824-0.669-1.4c0-0.579,0.249-1.104,0.668-1.409l55.075-39.802c0.398-0.288,0.895-0.329,1.323-0.109
		c0.523,0.267,0.849,0.847,0.849,1.514V187.57z M242.362,212.88l-55.121,39.792c-0.23,0.166-0.489,0.25-0.751,0.25
		c-0.194,0-0.39-0.046-0.572-0.14c-0.522-0.268-0.847-0.848-0.847-1.514v-15.894c0-0.578,0.25-1.103,0.67-1.404l30.347-21.906
		c0.156-0.111,0.253-0.339,0.253-0.592c0-0.255-0.097-0.482-0.254-0.597l-30.347-21.933c-0.417-0.3-0.667-0.824-0.667-1.402v-15.898
		c0-0.667,0.324-1.246,0.846-1.513c0.429-0.22,0.926-0.179,1.325,0.108l55.122,39.835c0.417,0.303,0.665,0.827,0.664,1.404
		S242.779,212.579,242.362,212.88" />
		<path fill="#E13F26" d="M179.159,378.022c-12.376,0-22.444,10.067-22.444,22.443c0,12.375,10.068,22.444,22.444,22.444
		c12.375,0,22.443-10.069,22.443-22.444C201.603,388.09,191.534,378.022,179.159,378.022" />
		<path fill="#12A1D3" d="M335.877,283.518c-12.375,0-22.444,10.067-22.444,22.443c0,12.375,10.069,22.444,22.444,22.444
		s22.444-10.069,22.444-22.444C358.321,293.585,348.252,283.518,335.877,283.518" />
		<path fill="#F5AA1C" d="M22.444,283.518C10.069,283.518,0,293.585,0,305.961c0,12.375,10.069,22.444,22.444,22.444
		s22.444-10.069,22.444-22.444C44.889,293.585,34.819,283.518,22.444,283.518" />
		<path fill="#243E96" d="M179.159,44.889c12.375,0,22.443-10.068,22.443-22.444C201.603,10.069,191.534,0,179.159,0
		c-12.376,0-22.444,10.069-22.444,22.444C156.715,34.82,166.783,44.889,179.159,44.889" />
		<path fill="#20AA52" d="M22.444,94.506C10.069,94.506,0,104.574,0,116.95c0,12.375,10.069,22.443,22.444,22.443
		s22.444-10.068,22.444-22.443C44.889,104.574,34.819,94.506,22.444,94.506" />
		<path fill="#C61B75" d="M335.877,139.394c12.375,0,22.444-10.068,22.444-22.444c0-12.375-10.069-22.443-22.444-22.443
		s-22.444,10.068-22.444,22.443C313.433,129.325,323.502,139.394,335.877,139.394" />
		<path d="M187.289,323.933h-16.26c-1.83,0-3.313,1.483-3.313,3.313v13.827c0,1.829,1.482,3.312,3.313,3.312h16.26
		c1.829,0,3.312-1.482,3.312-3.312v-13.827C190.601,325.416,189.118,323.933,187.289,323.933" />
		<path d="M171.028,98.978h16.26c1.829,0,3.313-1.483,3.313-3.312V81.839c0-1.829-1.483-3.313-3.313-3.313h-16.26
		c-1.829,0-3.312,1.483-3.312,3.313v13.827C167.717,97.494,169.199,98.978,171.028,98.978" />
		<path d="M137.036,37.269l8.13,14.086l-29.297,16.91l-8.131-14.087L137.036,37.269z M78.441,71.088l8.13,14.086l-29.296,16.909
		l-8.131-14.086L78.441,71.088z" />
		<path d="M300.936,320.798l8.13,14.086l-29.297,16.91l-8.131-14.087L300.936,320.798z M242.341,354.616l8.13,14.086l-29.296,16.909
		l-8.131-14.086L242.341,354.616z" />
		<path d="M107.738,368.616l8.13-14.087l29.299,16.909l-8.132,14.087L107.738,368.616z M49.145,334.797l8.13-14.086l29.297,16.909
		l-8.131,14.086L49.145,334.797z" />
		<path d="M30.576,262.196H14.313v-33.827h16.264V262.196z M30.576,194.541H14.313v-33.826h16.264V194.541z" />
		<path d="M344.009,262.196h-16.264V228.37h16.264V262.196z M344.009,194.542h-16.264v-33.827h16.264V194.542z" />
		<g>
			<path fill="#231F20" d="M10.672,503.373v27.722c0,0.842-3.559,1.498-4.121,1.498c-4.308,0-4.308-1.498-4.308-1.498v-63.218
			c0,0,0-1.31,4.215-1.31h36.899c0,0,1.311,0,1.311,3.745c0,3.466-1.311,3.466-1.311,3.466H10.672v22.664h28.752
			c0,0,1.311,0,1.311,3.56c0,3.371-1.311,3.371-1.311,3.371H10.672z" />
			<path fill="#231F20" d="M59.463,496.911c0,0,0-11.895,16.671-11.895c8.241,0,11.52,0.75,11.52,0.75s1.217,0.468,1.217,3.277
			c0,2.997-1.217,2.997-1.217,2.997s-2.997-0.656-10.021-0.656c-10.021,0-10.021,5.526-10.021,5.526v34.37c0,0,0,1.312-4.121,1.312
			c-4.027,0-4.027-1.312-4.027-1.312V496.911z" />
			<path fill="#231F20" d="M99.828,506.276c0-12.924,9.553-21.634,22.103-21.634c12.643,0,22.195,8.71,22.195,21.634v4.87
			c0,12.924-9.365,21.634-22.195,21.634c-12.737,0-22.103-8.71-22.103-21.634V506.276z M107.976,512.083
			c0,8.99,5.9,14.141,13.955,14.141c8.147,0,14.048-5.15,14.048-14.141v-6.743c0-8.991-6.088-14.142-14.048-14.142
			c-7.867,0-13.955,5.15-13.955,14.142V512.083z" />
			<path fill="#231F20" d="M202.938,531.281c0,0,0,1.312-4.121,1.312c-4.027,0-4.027-1.312-4.027-1.312v-29.313
			c0,0,0-10.77-11.332-10.77h-13.673v40.083c0,0,0,1.312-4.121,1.312c-4.027,0-4.027-1.312-4.027-1.312v-44.485
			c0,0,1.779-1.967,21.821-1.967c19.48,0,19.48,17.139,19.48,17.139V531.281z" />
			<path fill="#231F20" d="M233.655,491.665v29.315c0,0,0,4.775,5.432,4.775h4.683c0,0,1.03,0,1.03,3.185s-1.03,3.185-1.03,3.185
			h-4.683c-13.485,0-13.485-10.115-13.485-10.115v-30.345h-8.616c0,0-1.313,0-1.313-3.183c0-3.185,1.313-3.185,1.313-3.185h8.616
			v-11.8c0,0,0-0.938,4.026-0.938c4.027,0,4.027,0.938,4.027,0.938v11.8h9.832c0,0,1.313,0,1.313,3.185
			c0,3.183-1.313,3.183-1.313,3.183H233.655z" />
			<path fill="#231F20" d="M291.343,465.068c3.467,0,4.496,1.124,4.496,5.338c0,4.401-1.029,5.245-4.496,5.245
			c-3.371,0-4.4-0.844-4.4-5.245C286.942,466.192,287.972,465.068,291.343,465.068z M287.315,486.141c0,0,0-1.312,4.027-1.312
			c4.121,0,4.121,1.312,4.121,1.312v45.141c0,0,0,1.312-4.121,1.312c-4.027,0-4.027-1.312-4.027-1.312V486.141z" />
			<path fill="#231F20" d="M358.116,531.281c0,0,0,1.312-4.121,1.312c-4.024,0-4.024-1.312-4.024-1.312v-29.313
			c0,0,0-10.77-11.333-10.77h-13.675v40.083c0,0,0,1.312-4.118,1.312c-4.028,0-4.028-1.312-4.028-1.312v-44.485
			c0,0,1.78-1.967,21.821-1.967c19.479,0,19.479,17.139,19.479,17.139V531.281z" />
		</g>
		<g>
			<path fill="#231F20" d="M1.886,582.988c0-3.971,0.521-7.56,1.565-10.766c1.043-3.207,2.507-5.942,4.391-8.208
			c1.882-2.264,4.16-3.996,6.833-5.192c2.673-1.195,5.612-1.794,8.819-1.794c2.9,0,5.459,0.611,7.673,1.832
			c2.215,1.222,4.009,2.623,5.383,4.2l-2.138,2.29c-1.324-1.526-2.901-2.761-4.734-3.703c-1.832-0.941-3.894-1.412-6.184-1.412
			c-2.749,0-5.23,0.534-7.444,1.604c-2.215,1.068-4.099,2.584-5.65,4.543c-1.554,1.96-2.749,4.34-3.589,7.139
			c-0.84,2.801-1.26,5.956-1.26,9.468c0,3.513,0.42,6.681,1.26,9.506c0.84,2.826,2.023,5.23,3.55,7.216
			c1.527,1.984,3.386,3.525,5.574,4.619c2.188,1.096,4.632,1.642,7.33,1.642c2.597,0,4.887-0.509,6.872-1.527
			c1.985-1.018,3.894-2.57,5.726-4.657L37.925,602c-1.936,2.241-4.085,3.997-6.452,5.269s-5.181,1.909-8.438,1.909
			c-3.104,0-5.955-0.611-8.551-1.833c-2.597-1.221-4.824-2.965-6.682-5.23c-1.858-2.264-3.309-5.013-4.352-8.245
			C2.407,590.637,1.886,587.01,1.886,582.988z" />
			<path fill="#231F20" d="M75.031,591.005H55.104l-5.956,17.257h-3.512l17.714-50.316h3.512l17.714,50.316h-3.741L75.031,591.005z
			 M74.039,588.027l-3.207-9.392c-1.019-3.002-1.985-5.879-2.901-8.627c-0.917-2.749-1.808-5.675-2.672-8.78h-0.306
			c-0.867,3.105-1.757,6.031-2.673,8.78c-0.916,2.748-1.884,5.625-2.901,8.627l-3.207,9.392H74.039z" />
			<path fill="#231F20" d="M94.959,557.945h4.505l8.398,23.439l2.979,8.934h0.305l2.901-8.934l8.322-23.439h4.506v50.316h-3.283
			v-35.199c0-1.68,0.038-3.55,0.114-5.612c0.076-2.062,0.164-3.957,0.267-5.688h-0.229l-2.901,9.01l-8.704,23.745h-2.444
			l-8.78-23.745l-3.054-9.01h-0.152c0.101,1.73,0.202,3.626,0.305,5.688c0.102,2.063,0.153,3.933,0.153,5.612v35.199h-3.207V557.945
			z" />
			<path fill="#231F20" d="M142.831,557.945h13.744c2.799,0,5.307,0.241,7.521,0.725c2.215,0.484,4.098,1.286,5.65,2.405
			c1.552,1.12,2.735,2.571,3.55,4.352c0.814,1.782,1.222,3.971,1.222,6.566c0,4.938-1.578,8.617-4.733,11.033
			c-3.157,2.418-7.56,3.627-13.209,3.627h-10.231v21.608h-3.513V557.945z M155.658,583.676c5.192,0,9.022-0.916,11.491-2.748
			c2.469-1.833,3.704-4.812,3.704-8.935c0-2.138-0.318-3.905-0.955-5.306c-0.637-1.399-1.578-2.532-2.825-3.398
			c-1.247-0.865-2.824-1.476-4.733-1.832c-1.909-0.355-4.137-0.534-6.682-0.534h-9.314v22.753H155.658z" />
			<path fill="#231F20" d="M187.803,605.207h12.979v-44.208h-12.979v-3.054h29.472v3.054h-12.98v44.208h12.98v3.055h-29.472V605.207z
			" />
			<path fill="#231F20" d="M232.469,557.945h3.665l19.622,35.58l5.422,9.926h0.152c-0.103-2.443-0.204-4.874-0.305-7.292
			c-0.104-2.416-0.153-4.849-0.153-7.292v-30.922h3.359v50.316h-3.665l-19.622-35.581l-5.421-9.926h-0.153
			c0.102,2.443,0.203,4.836,0.306,7.177c0.102,2.342,0.153,4.734,0.153,7.178v31.152h-3.36V557.945z" />
			<path fill="#231F20" d="M304.088,591.005h-19.929l-5.955,17.257h-3.513l17.714-50.316h3.512l17.715,50.316h-3.741L304.088,591.005
			z M303.095,588.027l-3.207-9.392c-1.019-3.002-1.984-5.879-2.901-8.627c-0.916-2.749-1.807-5.675-2.672-8.78h-0.306
			c-0.866,3.105-1.757,6.031-2.672,8.78c-0.917,2.748-1.884,5.625-2.901,8.627l-3.207,9.392H303.095z" />
			<path fill="#231F20" d="M325.158,599.176c1.935,2.088,4.225,3.741,6.872,4.962c2.646,1.223,5.523,1.833,8.629,1.833
			c4.122,0,7.368-0.928,9.734-2.787c2.367-1.857,3.55-4.288,3.55-7.291c0-1.577-0.267-2.901-0.801-3.971
			c-0.535-1.069-1.248-1.997-2.138-2.787c-0.892-0.789-1.936-1.476-3.131-2.062c-1.197-0.584-2.457-1.157-3.779-1.718l-7.636-3.437
			c-1.171-0.458-2.394-1.018-3.665-1.679c-1.272-0.662-2.442-1.489-3.512-2.482c-1.068-0.992-1.96-2.163-2.673-3.512
			s-1.069-2.965-1.069-4.849c0-1.832,0.383-3.498,1.146-5.001c0.764-1.501,1.832-2.799,3.206-3.895
			c1.375-1.093,3.003-1.946,4.887-2.557c1.883-0.611,3.919-0.917,6.109-0.917c3.206,0,6.069,0.599,8.589,1.794
			c2.52,1.196,4.593,2.609,6.223,4.238l-2.061,2.366c-1.58-1.577-3.425-2.837-5.536-3.779c-2.113-0.941-4.519-1.412-7.215-1.412
			c-3.564,0-6.428,0.815-8.591,2.442c-2.164,1.63-3.245,3.818-3.245,6.566c0,1.478,0.306,2.725,0.917,3.742
			c0.61,1.019,1.387,1.896,2.328,2.635c0.941,0.737,1.959,1.373,3.055,1.908c1.094,0.534,2.149,1.006,3.168,1.412l7.56,3.359
			c1.526,0.611,2.978,1.299,4.353,2.062c1.373,0.764,2.582,1.655,3.626,2.673c1.043,1.019,1.871,2.228,2.481,3.627
			c0.61,1.4,0.916,3.066,0.916,5.001c0,1.936-0.395,3.729-1.184,5.383c-0.789,1.654-1.921,3.08-3.396,4.275
			c-1.478,1.197-3.246,2.139-5.308,2.826c-2.061,0.687-4.365,1.03-6.909,1.03c-3.869,0-7.28-0.7-10.231-2.1
			c-2.953-1.399-5.473-3.219-7.56-5.46L325.158,599.176z" />
		</g>
	</g>
</svg>