<svg xmlns="http://www.w3.org/2000/svg" width="827.54" height="328.951">
    <path fill="#FFF"
        d="M211.287 66.183l6.324-10.957 22.787 13.153-6.323 10.957-22.788-13.153zm-45.576-26.305l6.324-10.957 22.787 13.153-6.323 10.955-22.788-13.151zM46.479 210.355l6.284 10.977a2.576 2.576 0 0 0 3.515.955l9.335-5.343a2.576 2.576 0 0 0 .956-3.516l-6.284-10.977a2.576 2.576 0 0 0-3.516-.956l-9.334 5.344a2.576 2.576 0 0 0-.956 3.516M232.23 118.597l-6.284-10.978a2.577 2.577 0 0 0-3.516-.954l-9.334 5.342a2.58 2.58 0 0 0-.955 3.517l6.284 10.977a2.576 2.576 0 0 0 3.516.955l9.333-5.344a2.574 2.574 0 0 0 .956-3.515M230.985 207.46l-9.298-5.405a2.573 2.573 0 0 0-3.521.932l-6.358 10.934a2.574 2.574 0 0 0 .933 3.521l9.297 5.407a2.575 2.575 0 0 0 3.521-.933l6.358-10.934a2.576 2.576 0 0 0-.932-3.522M47.724 121.491l9.299 5.406a2.575 2.575 0 0 0 3.521-.933l6.358-10.934a2.575 2.575 0 0 0-.932-3.521l-9.299-5.406a2.575 2.575 0 0 0-3.521.932l-6.358 10.934a2.574 2.574 0 0 0 .932 3.522M139.354 94.988c-38.315 0-69.487 31.172-69.487 69.488 0 38.314 31.172 69.487 69.487 69.487s69.488-31.173 69.488-69.487c.001-38.316-31.172-69.488-69.488-69.488m-4.522 50.91c0 .484-.211.926-.564 1.182l-23.57 17.033c-.092.066-.151.211-.151.371s.06.308.152.375l23.568 17.014c.354.255.565.697.565 1.181v12.363c0 .56-.274 1.049-.718 1.276-.159.08-.328.121-.496.121-.226 0-.452-.072-.649-.216l-42.841-30.925c-.353-.254-.564-.695-.565-1.18 0-.485.211-.928.564-1.186l42.841-30.959c.345-.25.773-.283 1.146-.094.444.227.719.716.719 1.275v12.369zm53.748 19.776l-42.875 30.952a1.096 1.096 0 0 1-.647.215 1.09 1.09 0 0 1-.496-.121c-.443-.227-.719-.716-.719-1.275v-12.363c0-.484.212-.926.566-1.183l23.604-17.039c.091-.065.149-.211.15-.371 0-.159-.06-.307-.151-.373l-23.604-17.06c-.353-.254-.564-.696-.564-1.182v-12.366c0-.561.275-1.049.718-1.275.373-.19.801-.155 1.146.095l42.875 30.983c.354.256.564.698.563 1.184 0 .484-.211.924-.566 1.179" />
    <path fill="#E13F26"
        d="M139.354 294.036c-9.626 0-17.457 7.832-17.457 17.457 0 9.626 7.831 17.458 17.457 17.458s17.457-7.832 17.457-17.458c.001-9.625-7.831-17.457-17.457-17.457" />
    <path fill="#12A1D3"
        d="M261.254 220.527c-9.626 0-17.457 7.832-17.457 17.457 0 9.626 7.831 17.458 17.457 17.458s17.457-7.832 17.457-17.458c0-9.625-7.831-17.457-17.457-17.457" />
    <path fill="#F5AA1C"
        d="M17.457 220.527C7.831 220.527 0 228.359 0 237.984c0 9.626 7.831 17.458 17.457 17.458s17.457-7.832 17.457-17.458c0-9.625-7.831-17.457-17.457-17.457" />
    <path fill="#243E96"
        d="M139.354 34.916c9.626 0 17.457-7.832 17.457-17.457C156.812 7.832 148.98 0 139.354 0s-17.457 7.832-17.457 17.459c0 9.625 7.832 17.457 17.457 17.457" />
    <path fill="#20AA52"
        d="M17.457 73.51C7.831 73.51 0 81.342 0 90.967s7.831 17.457 17.457 17.457 17.457-7.832 17.457-17.457S27.083 73.51 17.457 73.51" />
    <path fill="#C61B75"
        d="M261.254 108.424c9.626 0 17.457-7.83 17.457-17.457 0-9.625-7.831-17.457-17.457-17.457s-17.457 7.832-17.457 17.457c0 9.627 7.831 17.457 17.457 17.457" />
    <path fill="#FFF"
        d="M145.678 251.964H133.03a2.576 2.576 0 0 0-2.576 2.576v10.755a2.576 2.576 0 0 0 2.576 2.576h12.647a2.576 2.576 0 0 0 2.576-2.576V254.54a2.574 2.574 0 0 0-2.575-2.576M133.03 76.988h12.647a2.576 2.576 0 0 0 2.576-2.576V63.656a2.576 2.576 0 0 0-2.576-2.576H133.03a2.576 2.576 0 0 0-2.576 2.576v10.756a2.576 2.576 0 0 0 2.576 2.576M106.59 28.989l6.324 10.956-22.789 13.153-6.324-10.957 22.789-13.152zM61.014 55.294l6.323 10.957-22.788 13.151-6.323-10.956 22.788-13.152zM234.075 249.525l6.324 10.956-22.789 13.153-6.324-10.957 22.789-13.152zm-45.576 26.306l6.323 10.957-22.788 13.151-6.323-10.957 22.788-13.151zM83.802 286.72l6.324-10.957 22.787 13.152-6.323 10.957-22.788-13.152zm-45.576-26.306l6.324-10.956 22.787 13.152-6.323 10.956-22.788-13.152zM23.782 203.943h-12.65V177.63h12.65v26.313zm0-52.623h-12.65v-26.312h12.65v26.312zM267.579 203.943h-12.65v-26.312h12.65v26.312zm0-52.623h-12.65v-26.312h12.65v26.312z" />
    <g fill="#FFF">
        <path
            d="M338.346 119.545v22.479c0 .684-2.886 1.215-3.341 1.215-3.493 0-3.493-1.215-3.493-1.215V90.763s0-1.063 3.417-1.063h29.922s1.063 0 1.063 3.038c0 2.81-1.063 2.81-1.063 2.81h-26.504v18.378h23.315s1.063 0 1.063 2.886c0 2.734-1.063 2.734-1.063 2.734h-23.316zM374.113 114.305s0-9.645 13.518-9.645c6.683 0 9.341.607 9.341.607s.987.38.987 2.658c0 2.43-.987 2.43-.987 2.43s-2.43-.532-8.126-.532c-8.126 0-8.126 4.48-8.126 4.48v27.871s0 1.063-3.342 1.063c-3.265 0-3.265-1.063-3.265-1.063v-27.869zM403.046 121.899c0-10.48 7.747-17.542 17.923-17.542 10.252 0 17.998 7.063 17.998 17.542v3.949c0 10.48-7.594 17.543-17.998 17.543-10.328 0-17.923-7.063-17.923-17.543v-3.949zm6.607 4.708c0 7.291 4.784 11.468 11.315 11.468 6.607 0 11.392-4.177 11.392-11.468v-5.468c0-7.291-4.937-11.467-11.392-11.467-6.379 0-11.315 4.177-11.315 11.467v5.468zM482.859 142.176s0 1.063-3.342 1.063c-3.266 0-3.266-1.063-3.266-1.063v-23.77s0-8.733-9.188-8.733h-11.088v32.503s0 1.063-3.342 1.063c-3.266 0-3.266-1.063-3.266-1.063v-36.073s1.443-1.595 17.695-1.595c15.796 0 15.796 13.897 15.796 13.897v23.771zM503.969 110.052v23.771s0 3.873 4.404 3.873h3.798s.835 0 .835 2.582-.835 2.582-.835 2.582h-3.798c-10.936 0-10.936-8.202-10.936-8.202v-24.606h-6.986s-1.063 0-1.063-2.582 1.063-2.582 1.063-2.582h6.986v-9.569s0-.759 3.266-.759 3.266.759 3.266.759v9.569h7.974s1.063 0 1.063 2.582-1.063 2.582-1.063 2.582h-7.974zM543.152 88.484c2.81 0 3.646.911 3.646 4.329 0 3.569-.836 4.253-3.646 4.253-2.734 0-3.569-.684-3.569-4.253 0-3.417.835-4.329 3.569-4.329zm-3.265 17.087s0-1.063 3.266-1.063c3.342 0 3.342 1.063 3.342 1.063v36.604s0 1.063-3.342 1.063c-3.266 0-3.266-1.063-3.266-1.063v-36.604zM593.502 142.176s0 1.063-3.342 1.063c-3.266 0-3.266-1.063-3.266-1.063v-23.77s0-8.733-9.188-8.733h-11.088v32.503s0 1.063-3.342 1.063c-3.266 0-3.266-1.063-3.266-1.063v-36.073s1.443-1.595 17.695-1.595c15.796 0 15.796 13.897 15.796 13.897v23.771z" />
    </g>
    <g fill="#FFF">
        <path
            d="M331.392 207.187c0-5.54.728-10.547 2.184-15.022 1.455-4.475 3.498-8.292 6.127-11.452a26.138 26.138 0 0 1 9.535-7.246c3.729-1.668 7.83-2.503 12.305-2.503 4.049 0 7.618.853 10.708 2.558 3.089 1.704 5.593 3.658 7.511 5.859l-2.983 3.195a21.897 21.897 0 0 0-6.605-5.166c-2.557-1.314-5.434-1.972-8.63-1.972-3.835 0-7.298.745-10.388 2.237-3.089 1.492-5.718 3.605-7.884 6.34-2.167 2.734-3.835 6.056-5.007 9.961-1.172 3.906-1.758 8.311-1.758 13.211s.586 9.322 1.758 13.264c1.172 3.942 2.823 7.299 4.954 10.068s4.723 4.92 7.777 6.445c3.053 1.529 6.462 2.291 10.228 2.291 3.622 0 6.818-.709 9.589-2.131 2.77-1.42 5.434-3.586 7.99-6.499l2.877 3.09c-2.7 3.126-5.7 5.577-9.003 7.351-3.303 1.775-7.228 2.664-11.772 2.664-4.333 0-8.311-.852-11.933-2.557s-6.73-4.137-9.322-7.299c-2.594-3.158-4.618-6.994-6.073-11.506-1.458-4.51-2.185-9.57-2.185-15.181zM433.456 218.373h-27.808l-8.31 24.078h-4.901l24.718-70.21h4.9l24.718 70.21h-5.221l-8.096-24.078zm-1.386-4.155l-4.475-13.104c-1.421-4.19-2.77-8.204-4.048-12.039a257.328 257.328 0 0 1-3.729-12.252h-.426a258.492 258.492 0 0 1-3.729 12.252 2624.777 2624.777 0 0 1-4.049 12.039l-4.475 13.104h24.931zM461.262 172.241h6.286l11.719 32.708 4.155 12.465h.426l4.049-12.465 11.613-32.708h6.285v70.21h-4.581v-49.114c0-2.345.054-4.955.16-7.832.106-2.876.229-5.521.373-7.937h-.32l-4.048 12.571-12.146 33.135h-3.409l-12.253-33.135-4.261-12.571h-.214c.142 2.415.283 5.061.427 7.937.142 2.877.213 5.487.213 7.832v49.114h-4.475v-70.21zM528.061 172.241h19.178c3.905 0 7.404.338 10.494 1.012 3.09.676 5.717 1.795 7.884 3.356 2.166 1.563 3.817 3.587 4.954 6.073 1.136 2.486 1.705 5.539 1.705 9.162 0 6.891-2.203 12.022-6.605 15.395-4.405 3.375-10.548 5.061-18.432 5.061h-14.276v30.151h-4.901v-70.21zm17.899 35.905c7.244 0 12.588-1.279 16.034-3.836 3.444-2.557 5.167-6.712 5.167-12.465 0-2.983-.444-5.45-1.332-7.404-.889-1.953-2.202-3.533-3.941-4.741-1.741-1.207-3.942-2.06-6.605-2.558-2.664-.496-5.771-.745-9.322-.745h-12.998v31.749h12.997zM590.812 238.189h18.112v-61.687h-18.112v-4.262h41.125v4.262h-18.112v61.687h18.112v4.262h-41.125v-4.262zM653.137 172.241h5.114l27.38 49.648 7.564 13.85h.214l-.427-10.175a240.178 240.178 0 0 1-.213-10.175v-43.148h4.688v70.21h-5.113l-27.381-49.647-7.564-13.851h-.213c.141 3.409.282 6.749.426 10.015.142 3.268.213 6.605.213 10.016v43.468h-4.688v-70.211zM753.07 218.373h-27.808l-8.31 24.078h-4.901l24.718-70.21h4.9l24.718 70.21h-5.221l-8.096-24.078zm-1.385-4.155l-4.475-13.104c-1.421-4.19-2.77-8.204-4.048-12.039a257.328 257.328 0 0 1-3.729-12.252h-.426a258.492 258.492 0 0 1-3.729 12.252 2624.777 2624.777 0 0 1-4.049 12.039l-4.475 13.104h24.931zM782.474 229.772c2.698 2.914 5.895 5.221 9.589 6.926 3.692 1.705 7.706 2.557 12.039 2.557 5.753 0 10.281-1.295 13.584-3.889 3.303-2.592 4.954-5.982 4.954-10.174 0-2.201-.373-4.049-1.119-5.541a12.82 12.82 0 0 0-2.982-3.889c-1.244-1.1-2.7-2.059-4.368-2.877a109.713 109.713 0 0 0-5.274-2.396l-10.653-4.795a52.422 52.422 0 0 1-5.114-2.344 22.214 22.214 0 0 1-4.9-3.462c-1.492-1.386-2.735-3.019-3.729-4.901-.995-1.881-1.491-4.137-1.491-6.766 0-2.557.532-4.882 1.598-6.978 1.065-2.095 2.558-3.905 4.475-5.434 1.918-1.526 4.19-2.717 6.818-3.569 2.627-.852 5.469-1.278 8.523-1.278 4.475 0 8.47.835 11.986 2.503 3.516 1.67 6.409 3.642 8.683 5.914l-2.877 3.303c-2.202-2.201-4.777-3.959-7.724-5.273-2.948-1.314-6.305-1.972-10.068-1.972-4.973 0-8.968 1.138-11.985 3.409-3.02 2.273-4.528 5.327-4.528 9.162 0 2.062.427 3.801 1.278 5.221a13.361 13.361 0 0 0 3.25 3.676 23.765 23.765 0 0 0 4.262 2.664 65.941 65.941 0 0 0 4.421 1.971l10.548 4.688a53.013 53.013 0 0 1 6.072 2.877c1.918 1.064 3.604 2.309 5.061 3.729 1.455 1.422 2.61 3.107 3.463 5.061.853 1.955 1.278 4.28 1.278 6.979 0 2.7-.551 5.203-1.651 7.512-1.102 2.309-2.682 4.297-4.741 5.966-2.061 1.669-4.527 2.983-7.404 3.942-2.876.958-6.091 1.438-9.642 1.438-5.398 0-10.158-.977-14.276-2.93-4.12-1.953-7.636-4.491-10.548-7.617l3.192-3.413z" />
    </g>
</svg>