<svg xmlns="http://www.w3.org/2000/svg" width="358.321" height="609.178">
    <path fill="#FFF"
        d="M271.638 85.087L279.769 71l29.297 16.91-8.131 14.086-29.297-16.909zm-58.594-33.819l8.13-14.086 29.297 16.909-8.131 14.086-29.296-16.909zM59.756 270.439l8.079 14.111a3.311 3.311 0 0 0 4.519 1.229l12.001-6.87a3.31 3.31 0 0 0 1.229-4.521l-8.079-14.111a3.311 3.311 0 0 0-4.519-1.229l-12.001 6.87a3.313 3.313 0 0 0-1.229 4.521M298.563 152.472l-8.079-14.112a3.314 3.314 0 0 0-4.52-1.229l-12 6.869a3.312 3.312 0 0 0-1.228 4.52l8.079 14.112a3.31 3.31 0 0 0 4.519 1.228l11.999-6.868a3.311 3.311 0 0 0 1.23-4.52M296.962 266.718l-11.953-6.95a3.31 3.31 0 0 0-4.526 1.198l-8.175 14.057a3.31 3.31 0 0 0 1.197 4.527l11.953 6.951a3.313 3.313 0 0 0 4.528-1.198l8.174-14.058a3.31 3.31 0 0 0-1.198-4.527M61.355 156.193l11.954 6.951a3.311 3.311 0 0 0 4.527-1.198l8.174-14.059a3.308 3.308 0 0 0-1.197-4.526l-11.954-6.951a3.312 3.312 0 0 0-4.528 1.198l-8.174 14.057a3.312 3.312 0 0 0 1.198 4.528M179.159 122.12c-49.26 0-89.335 40.074-89.335 89.335 0 49.26 40.075 89.336 89.335 89.336s89.336-40.076 89.336-89.336c0-49.261-40.076-89.335-89.336-89.335m-5.956 65.45c0 .578-.25 1.103-.667 1.404l-30.304 21.899c-.155.112-.253.339-.254.592 0 .255.098.483.255.597l30.301 21.874c.418.301.669.826.669 1.404v15.893c0 .667-.324 1.247-.847 1.515a1.259 1.259 0 0 1-.571.139c-.263 0-.523-.084-.752-.249l-55.076-39.758c-.418-.3-.668-.824-.669-1.4 0-.579.249-1.104.668-1.409l55.075-39.802a1.25 1.25 0 0 1 1.323-.109c.523.267.849.847.849 1.514v15.896zm69.159 25.31l-55.121 39.792a1.245 1.245 0 0 1-1.323.11c-.522-.268-.847-.848-.847-1.514v-15.894c0-.578.25-1.103.67-1.404l30.347-21.906c.156-.111.253-.339.253-.592 0-.255-.097-.482-.254-.597l-30.347-21.933c-.417-.3-.667-.824-.667-1.402v-15.898c0-.667.324-1.246.846-1.513.429-.22.926-.179 1.325.108l55.122 39.835c.417.303.665.827.664 1.404s-.251 1.103-.668 1.404" />
    <path fill="#E13F26"
        d="M179.159 378.022c-12.376 0-22.444 10.067-22.444 22.443 0 12.375 10.068 22.444 22.444 22.444 12.375 0 22.443-10.069 22.443-22.444.001-12.375-10.068-22.443-22.443-22.443" />
    <path fill="#12A1D3"
        d="M335.877 283.518c-12.375 0-22.444 10.067-22.444 22.443 0 12.375 10.069 22.444 22.444 22.444s22.444-10.069 22.444-22.444c0-12.376-10.069-22.443-22.444-22.443" />
    <path fill="#F5AA1C"
        d="M22.444 283.518C10.069 283.518 0 293.585 0 305.961c0 12.375 10.069 22.444 22.444 22.444s22.444-10.069 22.444-22.444c.001-12.376-10.069-22.443-22.444-22.443" />
    <path fill="#243E96"
        d="M179.159 44.889c12.375 0 22.443-10.068 22.443-22.444C201.603 10.069 191.534 0 179.159 0c-12.376 0-22.444 10.069-22.444 22.444 0 12.376 10.068 22.445 22.444 22.445" />
    <path fill="#20AA52"
        d="M22.444 94.506C10.069 94.506 0 104.574 0 116.95c0 12.375 10.069 22.443 22.444 22.443s22.444-10.068 22.444-22.443c.001-12.376-10.069-22.444-22.444-22.444" />
    <path fill="#C61B75"
        d="M335.877 139.394c12.375 0 22.444-10.068 22.444-22.444 0-12.375-10.069-22.443-22.444-22.443s-22.444 10.068-22.444 22.443c0 12.375 10.069 22.444 22.444 22.444" />
    <path fill="#FFF"
        d="M187.289 323.933h-16.26a3.313 3.313 0 0 0-3.313 3.313v13.827a3.312 3.312 0 0 0 3.313 3.312h16.26a3.312 3.312 0 0 0 3.312-3.312v-13.827a3.312 3.312 0 0 0-3.312-3.313M171.028 98.978h16.26a3.313 3.313 0 0 0 3.313-3.312V81.839a3.313 3.313 0 0 0-3.313-3.313h-16.26a3.312 3.312 0 0 0-3.312 3.313v13.827a3.313 3.313 0 0 0 3.312 3.312M137.036 37.269l8.13 14.086-29.297 16.91-8.131-14.087 29.298-16.909zM78.441 71.088l8.13 14.086-29.296 16.909-8.131-14.086 29.297-16.909zM300.936 320.798l8.13 14.086-29.297 16.91-8.131-14.087 29.298-16.909zm-58.595 33.818l8.13 14.086-29.296 16.909-8.131-14.086 29.297-16.909zM107.738 368.616l8.13-14.087 29.299 16.909-8.132 14.087-29.297-16.909zm-58.593-33.819l8.13-14.086 29.297 16.909-8.131 14.086-29.296-16.909zM30.576 262.196H14.313v-33.827h16.264v33.827zm0-67.655H14.313v-33.826h16.264v33.826zM344.009 262.196h-16.264V228.37h16.264v33.826zm0-67.654h-16.264v-33.827h16.264v33.827z" />
</svg>