<svg width="24" height="24" viewBox="0 0 24 24" fill="none" xmlns="http://www.w3.org/2000/svg">
<path d="M5.76018 1.44C3.3808 1.44 1.44018 3.38063 1.44018 5.76C1.44018 8.13938 3.3808 10.08 5.76018 10.08C8.13955 10.08 10.0802 8.13938 10.0802 5.76C10.0802 3.38063 8.13955 1.44 5.76018 1.44ZM14.8802 1.92C14.6158 1.92 14.4002 2.13563 14.4002 2.4V9.12C14.4002 9.38438 14.6158 9.6 14.8802 9.6H21.6002C21.8646 9.6 22.0802 9.38438 22.0802 9.12V2.4C22.0802 2.13563 21.8646 1.92 21.6002 1.92H14.8802ZM5.76018 2.4C7.62205 2.4 9.12018 3.89813 9.12018 5.76C9.12018 7.62188 7.62205 9.12 5.76018 9.12C3.8983 9.12 2.40018 7.62188 2.40018 5.76C2.40018 3.89813 3.8983 2.4 5.76018 2.4ZM15.3602 2.88H21.1202V8.64H15.3602V2.88ZM15.8683 13.44C15.6564 13.44 15.4708 13.5769 15.4071 13.7775L13.9427 18.525C13.8827 18.7163 13.9483 18.9263 14.1077 19.0481L17.9477 21.9825C18.1202 22.1138 18.3602 22.1138 18.5327 21.9825L22.3727 19.0481C22.5321 18.9263 22.5977 18.7163 22.5377 18.525L21.0733 13.7775C21.0096 13.5769 20.8239 13.44 20.6121 13.44H15.8683ZM5.73768 13.92C5.57268 13.9294 5.42455 14.0194 5.34205 14.1619L1.50393 20.8819C1.41768 21.03 1.41955 21.2138 1.50393 21.3619C1.59018 21.51 1.74955 21.6 1.92018 21.6H9.60018C9.7708 21.6 9.93018 21.51 10.0164 21.3619C10.1008 21.2138 10.1027 21.03 10.0183 20.8819L6.1783 14.1619C6.0883 14.0044 5.91768 13.9125 5.73768 13.92ZM16.2208 14.4H20.2596L21.5233 18.4875L18.2402 20.9963L14.9571 18.4875L16.2208 14.4ZM5.76018 15.3675L8.7733 20.64H2.74893L5.76018 15.3675Z" fill="white"/>
</svg>
