<svg width="28" height="28" viewBox="0 0 28 28" fill="none" xmlns="http://www.w3.org/2000/svg">
<g clip-path="url(#clip0_1_334)">
<path d="M25.0833 4.66666H22.5556V6.22221H24.8889V23.3333H3.11111V6.22221H5.44444V4.66666H2.91667C2.73485 4.66969 2.55541 4.70852 2.38861 4.78092C2.2218 4.85331 2.07089 4.95786 1.94449 5.08859C1.8181 5.21932 1.71869 5.37367 1.65196 5.54282C1.58522 5.71198 1.55246 5.89262 1.55556 6.07443V23.4811C1.55246 23.6629 1.58522 23.8436 1.65196 24.0127C1.71869 24.1819 1.8181 24.3362 1.94449 24.4669C2.07089 24.5977 2.2218 24.7022 2.38861 24.7746C2.55541 24.847 2.73485 24.8858 2.91667 24.8889H25.0833C25.2651 24.8858 25.4446 24.847 25.6114 24.7746C25.7782 24.7022 25.9291 24.5977 26.0555 24.4669C26.1819 24.3362 26.2813 24.1819 26.348 24.0127C26.4148 23.8436 26.4475 23.6629 26.4444 23.4811V6.07443C26.4475 5.89262 26.4148 5.71198 26.348 5.54282C26.2813 5.37367 26.1819 5.21932 26.0555 5.08859C25.9291 4.95786 25.7782 4.85331 25.6114 4.78092C25.4446 4.70852 25.2651 4.66969 25.0833 4.66666Z" fill="#F8F8F8"/>
<path d="M6.22222 10.8889H7.77778V12.4444H6.22222V10.8889Z" fill="#F8F8F8"/>
<path d="M10.8889 10.8889H12.4444V12.4444H10.8889V10.8889Z" fill="#F8F8F8"/>
<path d="M15.5556 10.8889H17.1111V12.4444H15.5556V10.8889Z" fill="#F8F8F8"/>
<path d="M20.2222 10.8889H21.7778V12.4444H20.2222V10.8889Z" fill="#F8F8F8"/>
<path d="M6.22222 14.7778H7.77778V16.3333H6.22222V14.7778Z" fill="#F8F8F8"/>
<path d="M10.8889 14.7778H12.4444V16.3333H10.8889V14.7778Z" fill="#F8F8F8"/>
<path d="M15.5556 14.7778H17.1111V16.3333H15.5556V14.7778Z" fill="#F8F8F8"/>
<path d="M20.2222 14.7778H21.7778V16.3333H20.2222V14.7778Z" fill="#F8F8F8"/>
<path d="M6.22222 18.6667H7.77778V20.2222H6.22222V18.6667Z" fill="#F8F8F8"/>
<path d="M10.8889 18.6667H12.4444V20.2222H10.8889V18.6667Z" fill="#F8F8F8"/>
<path d="M15.5556 18.6667H17.1111V20.2222H15.5556V18.6667Z" fill="#F8F8F8"/>
<path d="M20.2222 18.6667H21.7778V20.2222H20.2222V18.6667Z" fill="#F8F8F8"/>
<path d="M7.77778 7.77776C7.98406 7.77776 8.18189 7.69582 8.32775 7.54996C8.47361 7.4041 8.55556 7.20627 8.55556 6.99999V2.33332C8.55556 2.12704 8.47361 1.92921 8.32775 1.78335C8.18189 1.63749 7.98406 1.55554 7.77778 1.55554C7.5715 1.55554 7.37367 1.63749 7.22781 1.78335C7.08194 1.92921 7 2.12704 7 2.33332V6.99999C7 7.20627 7.08194 7.4041 7.22781 7.54996C7.37367 7.69582 7.5715 7.77776 7.77778 7.77776Z" fill="#F8F8F8"/>
<path d="M20.2222 7.77776C20.4285 7.77776 20.6263 7.69582 20.7722 7.54996C20.9181 7.4041 21 7.20627 21 6.99999V2.33332C21 2.12704 20.9181 1.92921 20.7722 1.78335C20.6263 1.63749 20.4285 1.55554 20.2222 1.55554C20.0159 1.55554 19.8181 1.63749 19.6722 1.78335C19.5264 1.92921 19.4444 2.12704 19.4444 2.33332V6.99999C19.4444 7.20627 19.5264 7.4041 19.6722 7.54996C19.8181 7.69582 20.0159 7.77776 20.2222 7.77776Z" fill="#F8F8F8"/>
<path d="M10.1111 4.66666H17.8889V6.22221H10.1111V4.66666Z" fill="#F8F8F8"/>
</g>
<defs>
<clipPath id="clip0_1_334">
<rect width="28" height="28" fill="white"/>
</clipPath>
</defs>
</svg>
