<svg width="24" height="24" viewBox="0 0 24 24" fill="none" xmlns="http://www.w3.org/2000/svg">
<path d="M16.3198 0.449997C13.4323 0.449997 11.066 2.78062 11.0098 5.655C10.7323 6.09187 7.05165 11.8931 4.15477 14.79L4.16977 14.805C4.1304 14.835 3.98977 14.9175 3.89977 15.15C3.79665 15.4162 3.87915 15.8644 4.16977 16.155L4.84477 16.83L4.03477 17.64C3.20602 18.4687 2.83665 19.4081 2.86477 20.295C2.8929 21.1819 3.2904 21.9956 3.89977 22.575C5.11665 23.7337 7.2429 24.0019 8.81977 22.425L15.4048 15.84C16.6854 14.5594 18.086 14.8237 18.9448 15.66C19.3741 16.0781 19.6516 16.6444 19.6648 17.25C19.6779 17.8556 19.4473 18.5175 18.7798 19.185L15.7348 22.23C15.536 22.4287 15.536 22.7512 15.7348 22.95C15.9335 23.1487 16.256 23.1487 16.4548 22.95L19.4848 19.905C20.3135 19.0762 20.6885 18.1256 20.6698 17.235C20.651 16.3444 20.2535 15.5269 19.6498 14.94C19.046 14.3531 18.2116 13.9912 17.3248 13.98C16.4379 13.9687 15.5079 14.3119 14.6998 15.12L8.11477 21.705C6.88477 22.935 5.47477 22.6687 4.60477 21.84C4.16977 21.4256 3.88852 20.8612 3.86977 20.265C3.85102 19.6687 4.07227 19.0125 4.73977 18.345L4.78477 18.315L5.54977 17.55L5.90977 17.895C6.19665 18.1819 6.59227 18.2906 6.86977 18.21C7.11165 18.1406 7.19602 17.9812 7.22977 17.94L7.25977 17.97C10.0835 15.1444 15.986 11.3512 16.4248 11.07C19.301 11.0137 21.6298 8.64937 21.6298 5.76C21.6298 2.83687 19.241 0.449997 16.3198 0.449997ZM16.3198 1.47C18.6954 1.47 20.6098 3.3825 20.6098 5.76C20.6098 6.71062 20.3041 7.58625 19.7848 8.295L13.7848 2.295C14.4935 1.77562 15.3691 1.47 16.3198 1.47ZM13.0498 2.985L19.1098 9.03C18.3616 9.66937 17.3866 10.05 16.3198 10.05C13.9423 10.05 12.0298 8.13937 12.0298 5.76C12.0298 4.69687 12.4141 3.73312 13.0498 2.985ZM11.2048 7.155C11.7016 8.96812 13.1379 10.4044 14.9548 10.89C12.9991 12.18 8.92477 14.9494 6.61477 17.25C6.60727 17.2406 6.60915 17.2444 6.58477 17.22L4.84477 15.465C7.19227 13.1119 9.93165 9.10312 11.2048 7.155ZM11.1298 10.335C10.9854 10.335 10.8335 10.3912 10.7248 10.5L9.43477 11.805C9.2154 12.0244 9.2154 12.3806 9.43477 12.6L9.47977 12.645C9.69727 12.8644 10.0554 12.8644 10.2748 12.645L11.5798 11.34C11.7991 11.1225 11.7973 10.7644 11.5798 10.545L11.5198 10.5C11.411 10.3912 11.2741 10.335 11.1298 10.335Z" fill="white"/>
</svg>
